<?xml version="1.0" encoding="utf-8"?>
<!-- Generator: Adobe Illustrator 26.2.1, SVG Export Plug-In . SVG Version: 6.00 Build 0)  -->
<svg version="1.1" id="Layer_1" xmlns="http://www.w3.org/2000/svg" xmlns:xlink="http://www.w3.org/1999/xlink" x="0px" y="0px"
	 viewBox="0 0 2000 1500" style="enable-background:new 0 0 2000 1500;" xml:space="preserve">
<path d="M960.4,214.5c-295.3,0-534.7,241.6-534.7,536.9s239.4,534.7,534.7,534.7s534.7-239.4,534.7-534.7S1255.7,214.5,960.4,214.5z
	 M893.3,489.7h134.2v387H893.3V489.7z M714.4,489.7h134.2v94H714.4C714.4,583.6,714.4,489.7,714.4,489.7z M848.6,887.9
	c0,40.3-8.9,69.4-24.6,89.5c-17.9,22.4-49.2,33.6-89.5,33.6h-20.1v-387h134.2V887.9z M1206.5,1013.2H893.3v-91.7h313.2V1013.2z
	 M1206.5,878.9h-136.5v-255h22.4c60.4,0,96.2,20.1,109.6,62.6c4.5,13.4,6.7,29.1,6.7,47v145.4H1206.5z"/>
</svg>
